<svg width="1920" height="640" viewBox="0 0 1920 640" fill="none" xmlns="http://www.w3.org/2000/svg">
<rect width="1920" height="640" fill="#F4FAFF"/>
<path d="M50.6667 107.667V105.667H77.3333V107.667H50.6667ZM52 103.667V94.6667H55.3333V103.667H52ZM58.8667 103.667V88H62.2V103.667H58.8667ZM65.7667 103.667V92H69.1V103.667H65.7667ZM72.6667 103.667V84H76V103.667H72.6667Z" fill="#189CCA"/>
<path d="M946.667 107.667V105.667H973.333V107.667H946.667ZM948 103.667V94.6667H951.333V103.667H948ZM954.867 103.667V88H958.2V103.667H954.867ZM961.767 103.667V92H965.1V103.667H961.767ZM968.667 103.667V84H972V103.667H968.667Z" fill="#189CCA"/>
<path d="M946.667 331.667V329.667H973.333V331.667H946.667ZM948 327.667V318.667H951.333V327.667H948ZM954.867 327.667V312H958.2V327.667H954.867ZM961.767 327.667V316H965.1V327.667H961.767ZM968.667 327.667V308H972V327.667H968.667Z" fill="#189CCA"/>
<path d="M946.667 555.667V553.667H973.333V555.667H946.667ZM948 551.667V542.667H951.333V551.667H948ZM954.867 551.667V536H958.2V551.667H954.867ZM961.767 551.667V540H965.1V551.667H961.767ZM968.667 551.667V532H972V551.667H968.667Z" fill="#189CCA"/>
<path d="M498.667 107.667V105.667H525.333V107.667H498.667ZM500 103.667V94.6667H503.333V103.667H500ZM506.867 103.667V88H510.2V103.667H506.867ZM513.767 103.667V92H517.1V103.667H513.767ZM520.667 103.667V84H524V103.667H520.667Z" fill="#189CCA"/>
<path d="M274.667 107.667V105.667H301.333V107.667H274.667ZM276 103.667V94.6667H279.333V103.667H276ZM282.867 103.667V88H286.2V103.667H282.867ZM289.767 103.667V92H293.1V103.667H289.767ZM296.667 103.667V84H300V103.667H296.667Z" fill="#189CCA"/>
<path d="M498.667 331.667V329.667H525.333V331.667H498.667ZM500 327.667V318.667H503.333V327.667H500ZM506.867 327.667V312H510.2V327.667H506.867ZM513.767 327.667V316H517.1V327.667H513.767ZM520.667 327.667V308H524V327.667H520.667Z" fill="#189CCA"/>
<path d="M498.667 555.667V553.667H525.333V555.667H498.667ZM500 551.667V542.667H503.333V551.667H500ZM506.867 551.667V536H510.2V551.667H506.867ZM513.767 551.667V540H517.1V551.667H513.767ZM520.667 551.667V532H524V551.667H520.667Z" fill="#189CCA"/>
<path d="M1394.67 107.667V105.667H1421.33V107.667H1394.67ZM1396 103.667V94.6667H1399.33V103.667H1396ZM1402.87 103.667V88H1406.2V103.667H1402.87ZM1409.77 103.667V92H1413.1V103.667H1409.77ZM1416.67 103.667V84H1420V103.667H1416.67Z" fill="#189CCA"/>
<path d="M1394.67 331.667V329.667H1421.33V331.667H1394.67ZM1396 327.667V318.667H1399.33V327.667H1396ZM1402.87 327.667V312H1406.2V327.667H1402.87ZM1409.77 327.667V316H1413.1V327.667H1409.77ZM1416.67 327.667V308H1420V327.667H1416.67Z" fill="#189CCA"/>
<path d="M1394.67 555.667V553.667H1421.33V555.667H1394.67ZM1396 551.667V542.667H1399.33V551.667H1396ZM1402.87 551.667V536H1406.2V551.667H1402.87ZM1409.77 551.667V540H1413.1V551.667H1409.77ZM1416.67 551.667V532H1420V551.667H1416.67Z" fill="#189CCA"/>
<path d="M274.667 331.667V329.667H301.333V331.667H274.667ZM276 327.667V318.667H279.333V327.667H276ZM282.867 327.667V312H286.2V327.667H282.867ZM289.767 327.667V316H293.1V327.667H289.767ZM296.667 327.667V308H300V327.667H296.667Z" fill="#189CCA"/>
<path d="M274.667 555.667V553.667H301.333V555.667H274.667ZM276 551.667V542.667H279.333V551.667H276ZM282.867 551.667V536H286.2V551.667H282.867ZM289.767 551.667V540H293.1V551.667H289.767ZM296.667 551.667V532H300V551.667H296.667Z" fill="#189CCA"/>
<path d="M1170.67 107.667V105.667H1197.33V107.667H1170.67ZM1172 103.667V94.6667H1175.33V103.667H1172ZM1178.87 103.667V88H1182.2V103.667H1178.87ZM1185.77 103.667V92H1189.1V103.667H1185.77ZM1192.67 103.667V84H1196V103.667H1192.67Z" fill="#189CCA"/>
<path d="M1170.67 331.667V329.667H1197.33V331.667H1170.67ZM1172 327.667V318.667H1175.33V327.667H1172ZM1178.87 327.667V312H1182.2V327.667H1178.87ZM1185.77 327.667V316H1189.1V327.667H1185.77ZM1192.67 327.667V308H1196V327.667H1192.67Z" fill="#189CCA"/>
<path d="M1170.67 555.667V553.667H1197.33V555.667H1170.67ZM1172 551.667V542.667H1175.33V551.667H1172ZM1178.87 551.667V536H1182.2V551.667H1178.87ZM1185.77 551.667V540H1189.1V551.667H1185.77ZM1192.67 551.667V532H1196V551.667H1192.67Z" fill="#189CCA"/>
<path d="M722.667 107.667V105.667H749.333V107.667H722.667ZM724 103.667V94.6667H727.333V103.667H724ZM730.867 103.667V88H734.2V103.667H730.867ZM737.767 103.667V92H741.1V103.667H737.767ZM744.667 103.667V84H748V103.667H744.667Z" fill="#189CCA"/>
<path d="M722.667 331.667V329.667H749.333V331.667H722.667ZM724 327.667V318.667H727.333V327.667H724ZM730.867 327.667V312H734.2V327.667H730.867ZM737.767 327.667V316H741.1V327.667H737.767ZM744.667 327.667V308H748V327.667H744.667Z" fill="#189CCA"/>
<path d="M722.667 555.667V553.667H749.333V555.667H722.667ZM724 551.667V542.667H727.333V551.667H724ZM730.867 551.667V536H734.2V551.667H730.867ZM737.767 551.667V540H741.1V551.667H737.767ZM744.667 551.667V532H748V551.667H744.667Z" fill="#189CCA"/>
<path d="M1618.67 107.667V105.667H1645.33V107.667H1618.67ZM1620 103.667V94.6667H1623.33V103.667H1620ZM1626.87 103.667V88H1630.2V103.667H1626.87ZM1633.77 103.667V92H1637.1V103.667H1633.77ZM1640.67 103.667V84H1644V103.667H1640.67Z" fill="#189CCA"/>
<path d="M1618.67 331.667V329.667H1645.33V331.667H1618.67ZM1620 327.667V318.667H1623.33V327.667H1620ZM1626.87 327.667V312H1630.2V327.667H1626.87ZM1633.77 327.667V316H1637.1V327.667H1633.77ZM1640.67 327.667V308H1644V327.667H1640.67Z" fill="#189CCA"/>
<path d="M1618.67 555.667V553.667H1645.33V555.667H1618.67ZM1620 551.667V542.667H1623.33V551.667H1620ZM1626.87 551.667V536H1630.2V551.667H1626.87ZM1633.77 551.667V540H1637.1V551.667H1633.77ZM1640.67 551.667V532H1644V551.667H1640.67Z" fill="#189CCA"/>
<path d="M162.667 219.667V217.667H189.333V219.667H162.667ZM164 215.667V206.667H167.333V215.667H164ZM170.867 215.667V200H174.2V215.667H170.867ZM177.767 215.667V204H181.1V215.667H177.767ZM184.667 215.667V196H188V215.667H184.667Z" fill="#189CCA"/>
<path d="M162.667 443.667V441.667H189.333V443.667H162.667ZM164 439.667V430.667H167.333V439.667H164ZM170.867 439.667V424H174.2V439.667H170.867ZM177.767 439.667V428H181.1V439.667H177.767ZM184.667 439.667V420H188V439.667H184.667Z" fill="#189CCA"/>
<path d="M1058.67 219.667V217.667H1085.33V219.667H1058.67ZM1060 215.667V206.667H1063.33V215.667H1060ZM1066.87 215.667V200H1070.2V215.667H1066.87ZM1073.77 215.667V204H1077.1V215.667H1073.77ZM1080.67 215.667V196H1084V215.667H1080.67Z" fill="#189CCA"/>
<path d="M1058.67 443.667V441.667H1085.33V443.667H1058.67ZM1060 439.667V430.667H1063.33V439.667H1060ZM1066.87 439.667V424H1070.2V439.667H1066.87ZM1073.77 439.667V428H1077.1V439.667H1073.77ZM1080.67 439.667V420H1084V439.667H1080.67Z" fill="#189CCA"/>
<path d="M610.667 219.667V217.667H637.333V219.667H610.667ZM612 215.667V206.667H615.333V215.667H612ZM618.867 215.667V200H622.2V215.667H618.867ZM625.767 215.667V204H629.1V215.667H625.767ZM632.667 215.667V196H636V215.667H632.667Z" fill="#189CCA"/>
<path d="M610.667 443.667V441.667H637.333V443.667H610.667ZM612 439.667V430.667H615.333V439.667H612ZM618.867 439.667V424H622.2V439.667H618.867ZM625.767 439.667V428H629.1V439.667H625.767ZM632.667 439.667V420H636V439.667H632.667Z" fill="#189CCA"/>
<path d="M1506.67 219.667V217.667H1533.33V219.667H1506.67ZM1508 215.667V206.667H1511.33V215.667H1508ZM1514.87 215.667V200H1518.2V215.667H1514.87ZM1521.77 215.667V204H1525.1V215.667H1521.77ZM1528.67 215.667V196H1532V215.667H1528.67Z" fill="#189CCA"/>
<path d="M1506.67 443.667V441.667H1533.33V443.667H1506.67ZM1508 439.667V430.667H1511.33V439.667H1508ZM1514.87 439.667V424H1518.2V439.667H1514.87ZM1521.77 439.667V428H1525.1V439.667H1521.77ZM1528.67 439.667V420H1532V439.667H1528.67Z" fill="#189CCA"/>
<path d="M386.667 219.667V217.667H413.333V219.667H386.667ZM388 215.667V206.667H391.333V215.667H388ZM394.867 215.667V200H398.2V215.667H394.867ZM401.767 215.667V204H405.1V215.667H401.767ZM408.667 215.667V196H412V215.667H408.667Z" fill="#189CCA"/>
<path d="M386.667 443.667V441.667H413.333V443.667H386.667ZM388 439.667V430.667H391.333V439.667H388ZM394.867 439.667V424H398.2V439.667H394.867ZM401.767 439.667V428H405.1V439.667H401.767ZM408.667 439.667V420H412V439.667H408.667Z" fill="#189CCA"/>
<path d="M1282.67 219.667V217.667H1309.33V219.667H1282.67ZM1284 215.667V206.667H1287.33V215.667H1284ZM1290.87 215.667V200H1294.2V215.667H1290.87ZM1297.77 215.667V204H1301.1V215.667H1297.77ZM1304.67 215.667V196H1308V215.667H1304.67Z" fill="#189CCA"/>
<path d="M1282.67 443.667V441.667H1309.33V443.667H1282.67ZM1284 439.667V430.667H1287.33V439.667H1284ZM1290.87 439.667V424H1294.2V439.667H1290.87ZM1297.77 439.667V428H1301.1V439.667H1297.77ZM1304.67 439.667V420H1308V439.667H1304.67Z" fill="#189CCA"/>
<path d="M834.667 219.667V217.667H861.333V219.667H834.667ZM836 215.667V206.667H839.333V215.667H836ZM842.867 215.667V200H846.2V215.667H842.867ZM849.767 215.667V204H853.1V215.667H849.767ZM856.667 215.667V196H860V215.667H856.667Z" fill="#189CCA"/>
<path d="M834.667 443.667V441.667H861.333V443.667H834.667ZM836 439.667V430.667H839.333V439.667H836ZM842.867 439.667V424H846.2V439.667H842.867ZM849.767 439.667V428H853.1V439.667H849.767ZM856.667 439.667V420H860V439.667H856.667Z" fill="#189CCA"/>
<path d="M1730.67 219.667V217.667H1757.33V219.667H1730.67ZM1732 215.667V206.667H1735.33V215.667H1732ZM1738.87 215.667V200H1742.2V215.667H1738.87ZM1745.77 215.667V204H1749.1V215.667H1745.77ZM1752.67 215.667V196H1756V215.667H1752.67Z" fill="#189CCA"/>
<path d="M1730.67 443.667V441.667H1757.33V443.667H1730.67ZM1732 439.667V430.667H1735.33V439.667H1732ZM1738.87 439.667V424H1742.2V439.667H1738.87ZM1745.77 439.667V428H1749.1V439.667H1745.77ZM1752.67 439.667V420H1756V439.667H1752.67Z" fill="#189CCA"/>
<path d="M1842.67 107.667V105.667H1869.33V107.667H1842.67ZM1844 103.667V94.6667H1847.33V103.667H1844ZM1850.87 103.667V88H1854.2V103.667H1850.87ZM1857.77 103.667V92H1861.1V103.667H1857.77ZM1864.67 103.667V84H1868V103.667H1864.67Z" fill="#189CCA"/>
<path d="M1842.67 331.667V329.667H1869.33V331.667H1842.67ZM1844 327.667V318.667H1847.33V327.667H1844ZM1850.87 327.667V312H1854.2V327.667H1850.87ZM1857.77 327.667V316H1861.1V327.667H1857.77ZM1864.67 327.667V308H1868V327.667H1864.67Z" fill="#189CCA"/>
<path d="M1842.67 555.667V553.667H1869.33V555.667H1842.67ZM1844 551.667V542.667H1847.33V551.667H1844ZM1850.87 551.667V536H1854.2V551.667H1850.87ZM1857.77 551.667V540H1861.1V551.667H1857.77ZM1864.67 551.667V532H1868V551.667H1864.67Z" fill="#189CCA"/>
<path d="M50.6667 331.667V329.667H77.3333V331.667H50.6667ZM52 327.667V318.667H55.3333V327.667H52ZM58.8667 327.667V312H62.2V327.667H58.8667ZM65.7667 327.667V316H69.1V327.667H65.7667ZM72.6667 327.667V308H76V327.667H72.6667Z" fill="#189CCA"/>
<path d="M50.6667 555.667V553.667H77.3333V555.667H50.6667ZM52 551.667V542.667H55.3333V551.667H52ZM58.8667 551.667V536H62.2V551.667H58.8667ZM65.7667 551.667V540H69.1V551.667H65.7667ZM72.6667 551.667V532H76V551.667H72.6667Z" fill="#189CCA"/>
</svg>
