<svg width="1920" height="720" viewBox="0 0 1920 720" fill="none" xmlns="http://www.w3.org/2000/svg">
<rect width="1920" height="720" fill="white"/>
<path d="M109 103H117V95H109V103ZM91 103H99V95H91V103ZM111.3 114L115.3 106H106V92H120V106.4L116.2 114H111.3ZM93.3 114L97.3 106H88V92H102V106.4L98.2 114H93.3Z" fill="#189CCA"/>
<path d="M109 359H117V351H109V359ZM91 359H99V351H91V359ZM111.3 370L115.3 362H106V348H120V362.4L116.2 370H111.3ZM93.3 370L97.3 362H88V348H102V362.4L98.2 370H93.3Z" fill="#189CCA"/>
<path d="M109 615H117V607H109V615ZM91 615H99V607H91V615ZM111.3 626L115.3 618H106V604H120V618.4L116.2 626H111.3ZM93.3 626L97.3 618H88V604H102V618.4L98.2 626H93.3Z" fill="#189CCA"/>
<path d="M685 103H693V95H685V103ZM667 103H675V95H667V103ZM687.3 114L691.3 106H682V92H696V106.4L692.2 114H687.3ZM669.3 114L673.3 106H664V92H678V106.4L674.2 114H669.3Z" fill="#189CCA"/>
<path d="M685 359H693V351H685V359ZM667 359H675V351H667V359ZM687.3 370L691.3 362H682V348H696V362.4L692.2 370H687.3ZM669.3 370L673.3 362H664V348H678V362.4L674.2 370H669.3Z" fill="#189CCA"/>
<path d="M685 615H693V607H685V615ZM667 615H675V607H667V615ZM687.3 626L691.3 618H682V604H696V618.4L692.2 626H687.3ZM669.3 626L673.3 618H664V604H678V618.4L674.2 626H669.3Z" fill="#189CCA"/>
<path d="M1549 231H1557V223H1549V231ZM1531 231H1539V223H1531V231ZM1551.3 242L1555.3 234H1546V220H1560V234.4L1556.2 242H1551.3ZM1533.3 242L1537.3 234H1528V220H1542V234.4L1538.2 242H1533.3Z" fill="#189CCA"/>
<path d="M1549 487H1557V479H1549V487ZM1531 487H1539V479H1531V487ZM1551.3 498L1555.3 490H1546V476H1560V490.4L1556.2 498H1551.3ZM1533.3 498L1537.3 490H1528V476H1542V490.4L1538.2 498H1533.3Z" fill="#189CCA"/>
<path d="M397 231H405V223H397V231ZM379 231H387V223H379V231ZM399.3 242L403.3 234H394V220H408V234.4L404.2 242H399.3ZM381.3 242L385.3 234H376V220H390V234.4L386.2 242H381.3Z" fill="#189CCA"/>
<path d="M397 487H405V479H397V487ZM379 487H387V479H379V487ZM399.3 498L403.3 490H394V476H408V490.4L404.2 498H399.3ZM381.3 498L385.3 490H376V476H390V490.4L386.2 498H381.3Z" fill="#189CCA"/>
<path d="M1261 103H1269V95H1261V103ZM1243 103H1251V95H1243V103ZM1263.3 114L1267.3 106H1258V92H1272V106.4L1268.2 114H1263.3ZM1245.3 114L1249.3 106H1240V92H1254V106.4L1250.2 114H1245.3Z" fill="#189CCA"/>
<path d="M1261 359H1269V351H1261V359ZM1243 359H1251V351H1243V359ZM1263.3 370L1267.3 362H1258V348H1272V362.4L1268.2 370H1263.3ZM1245.3 370L1249.3 362H1240V348H1254V362.4L1250.2 370H1245.3Z" fill="#189CCA"/>
<path d="M1261 615H1269V607H1261V615ZM1243 615H1251V607H1243V615ZM1263.3 626L1267.3 618H1258V604H1272V618.4L1268.2 626H1263.3ZM1245.3 626L1249.3 618H1240V604H1254V618.4L1250.2 626H1245.3Z" fill="#189CCA"/>
<path d="M973 231H981V223H973V231ZM955 231H963V223H955V231ZM975.3 242L979.3 234H970V220H984V234.4L980.2 242H975.3ZM957.3 242L961.3 234H952V220H966V234.4L962.2 242H957.3Z" fill="#189CCA"/>
<path d="M973 487H981V479H973V487ZM955 487H963V479H955V487ZM975.3 498L979.3 490H970V476H984V490.4L980.2 498H975.3ZM957.3 498L961.3 490H952V476H966V490.4L962.2 498H957.3Z" fill="#189CCA"/>
<path d="M1837 103H1845V95H1837V103ZM1819 103H1827V95H1819V103ZM1839.3 114L1843.3 106H1834V92H1848V106.4L1844.2 114H1839.3ZM1821.3 114L1825.3 106H1816V92H1830V106.4L1826.2 114H1821.3Z" fill="#189CCA"/>
<path d="M1837 359H1845V351H1837V359ZM1819 359H1827V351H1819V359ZM1839.3 370L1843.3 362H1834V348H1848V362.4L1844.2 370H1839.3ZM1821.3 370L1825.3 362H1816V348H1830V362.4L1826.2 370H1821.3Z" fill="#189CCA"/>
<path d="M1837 615H1845V607H1837V615ZM1819 615H1827V607H1819V615ZM1839.3 626L1843.3 618H1834V604H1848V618.4L1844.2 626H1839.3ZM1821.3 626L1825.3 618H1816V604H1830V618.4L1826.2 626H1821.3Z" fill="#189CCA"/>
</svg>
